<?xml version="1.0" encoding="UTF-8" standalone="no"?>
<svg
   xmlns:dc="http://purl.org/dc/elements/1.1/"
   xmlns:cc="http://creativecommons.org/ns#"
   xmlns:rdf="http://www.w3.org/1999/02/22-rdf-syntax-ns#"
   xmlns:svg="http://www.w3.org/2000/svg"
   xmlns="http://www.w3.org/2000/svg"
   width="300mm"
   height="300mm"
   viewBox="0 0 300 300"
   version="1.1"
   id="svg8">
  <defs
     id="defs2" />
  <metadata
     id="metadata5">
    <rdf:RDF>
      <cc:Work
         rdf:about="">
        <dc:format>image/svg+xml</dc:format>
        <dc:type
           rdf:resource="http://purl.org/dc/dcmitype/StillImage" />
        <dc:title></dc:title>
      </cc:Work>
    </rdf:RDF>
  </metadata>
  <g
     id="layer1" />
  <g
     id="layer2">
    <ellipse
       style="display:inline;fill:none;stroke:#000000;stroke-width:16;stroke-miterlimit:4;stroke-dasharray:none;stroke-opacity:1;opacity:1"
       id="path2831"
       cx="150.41261"
       cy="150.31598"
       rx="143.2323"
       ry="142.55203" />
  </g>
  <g
     id="layer3">
    <ellipse
       style="fill:none;stroke:#000000;stroke-width:16;stroke-miterlimit:4;stroke-dasharray:none;stroke-opacity:1;opacity:1"
       id="path3657"
       cx="154.0231"
       cy="111.68129"
       rx="59.362568"
       ry="59.362572" />
  </g>
  <g
     id="layer4">
    <path
       style="opacity:1;fill:none;stroke:#000000;stroke-width:16;stroke-linecap:butt;stroke-linejoin:miter;stroke-miterlimit:4;stroke-dasharray:none;stroke-opacity:1"
       d="m 25.249687,212.09736 c 7.965959,-9.85324 18.840085,-17.32558 30.894233,-21.22948 12.054148,-3.9039 25.244266,-4.2251 37.474145,-0.91255 9.601065,2.60051 18.460615,7.32855 27.482825,11.51696 9.02221,4.18842 18.51507,7.91731 28.45494,8.29433 11.2837,0.42799 22.27386,-3.49422 32.55687,-8.15949 10.283,-4.66526 20.27708,-10.15863 31.15002,-13.20563 11.81433,-3.31082 24.46243,-3.59927 36.41542,-0.8305 11.95298,2.76877 23.18607,8.58903 32.34142,16.75723"
       id="path3666" />
  </g>
</svg>
